PathFileType	4	(x/y/z)	A01_FAST_T0024.trc
DataRate	CameraRate	NumFrames	NumMarkers	Units	OrigDataRate	OrigDataStartFrame	OrigNumFrames
240	240	9	48	mm	240	218	290
Frame#	Time	TOP_HEAD			R_AC			L_AC			R_ASIS			L_ASIS			R_PSIS			L_PSIS			SACRAL			L_IC			R_IC			L_GT			R_GT			R_LAT_KNEE			R_MED_KNEE			L_MED_KNEE			L_LAT_KNEE			R_TOE			L_TOE			R_1ST_MET			L_1ST_MET			L_5TH_MET			R_5TH_MET			R_LAT_ANK			R_MED_ANK			L_MED_ANK			L_LAT_ANK			L_HEEL_SUP			R_HEEL_SUP			L_HEEL_LAT			R_HEEL_LAT			L_HEEL_MED			R_HEEL_MED			R_LL_PROX_POST			R_LL_PROX_ANT			R_LL_DIST_ANT			R_LL_DIST_POST			R_THIGH_PROX_POST			R_THIGH_PROX_ANT			R_THIGH_DIST_ANT			R_THIGH_DIST_POST			L_PROS_PROX_ANT			L_PROS_PROX_POST			L_PROS_DIST_POST			L_PROS_DIST_ANT			L_THIGH_PROX_ANT			L_THIGH_PROX_POST			L_THIGH_DIST_POST			L_THIGH_DIST_ANT			
		X1	Y1	Z1	X2	Y2	Z2	X3	Y3	Z3	X4	Y4	Z4	X5	Y5	Z5	X6	Y6	Z6	X7	Y7	Z7	X8	Y8	Z8	X9	Y9	Z9	X10	Y10	Z10	X11	Y11	Z11	X12	Y12	Z12	X13	Y13	Z13	X14	Y14	Z14	X15	Y15	Z15	X16	Y16	Z16	X17	Y17	Z17	X18	Y18	Z18	X19	Y19	Z19	X20	Y20	Z20	X21	Y21	Z21	X22	Y22	Z22	X23	Y23	Z23	X24	Y24	Z24	X25	Y25	Z25	X26	Y26	Z26	X27	Y27	Z27	X28	Y28	Z28	X29	Y29	Z29	X30	Y30	Z30	X31	Y31	Z31	X32	Y32	Z32	X33	Y33	Z33	X34	Y34	Z34	X35	Y35	Z35	X36	Y36	Z36	X37	Y37	Z37	X38	Y38	Z38	X39	Y39	Z39	X40	Y40	Z40	X41	Y41	Z41	X42	Y42	Z42	X43	Y43	Z43	X44	Y44	Z44	X45	Y45	Z45	X46	Y46	Z46	X47	Y47	Z47	X48	Y48	Z48	

218	0.9073	801.67	1745	286.44	573.99	1569.9	554.2	533.67	1551.4	94.917	544.24	1097.6	543.08	535.37	1042.2	191.28	322.45	1102.5	425.78	329.12	1097.7	293.78	310.43	1070	358.24	504.81	1152	149.36	516.53	1205.4	550.18	482.21	962.01	150.23	484.09	985.48	583.3	512.9	574.56	503.36	542.62	579.75	374.15	643.13	565.9	343.78	618.86	600.98	190.55	667.76	66.655	390.57	460.99	85.073	203.12	581.57	55.752	344.26	386.73	107.23	267.39	348.16	134.82	146.29	554.3	46.361	480.26	446.58	116.49	454.98	448.22	123.16	352.02	339.36	251.85	271.59	305.66	269.17	208.66	213.52	279.44	260.67	341.5	91.186	400.46	198.54	256.5	226.92	347.54	66.764	434.57	210.45	241.63	288.32	349.35	63.381	371.88	409.12	405.39	499.96	479.19	390.21	514.63	476.01	317.31	493.33	419.23	324.01	485.91	453.69	835.49	557.06	522.1	859.79	566.98	532.23	769.55	553.49	467.86	748.04	541.19	606.29	507.36	193.84	562.06	540.26	189.96	519.79	493.07	197.46	567.27	466.62	200.14	598.36	841.72	185.27	531.33	827.79	161.46	562.47	758.35	171.19	623.83	772.03	191.33
219	0.91148	807.87	1746.2	286.09	580.05	1571.5	553.92	539.32	1552.3	94.628	550.07	1098.6	543.3	541.61	1043.8	191.47	328.47	1103.8	425.57	335.31	1098.9	293.63	316.54	1071.3	358.03	511.06	1153.2	149.42	522.4	1206.9	550.04	488.86	963.48	150.24	489.35	986.57	583.27	514.43	575.4	503.32	544.32	580.37	374.14	651.6	568.88	344.28	627.45	602.93	190.75	667.93	66.539	390.61	481.31	83.601	203.69	581.79	55.776	344.32	406.14	104.26	267.34	367.8	130.58	145.88	554.46	46.384	480.26	447.1	117.26	455.05	448.83	123.95	352.11	355.45	247.76	270.76	321.78	264.12	207.58	229.06	272.42	258.82	342	92.557	400.52	214.88	249.02	225.06	347.87	68.062	434.65	226.68	234.63	286.55	349.6	64.771	372	410.08	406.5	499.8	480.08	391.14	514.6	476.78	318.25	493.33	420.01	325.09	485.83	457.72	836.97	556.92	526.27	860.66	566.93	535.66	770.3	553.39	471.08	749.39	541.07	616.94	509.11	194.14	572.04	540.94	189.93	530.82	492.82	197.27	578.85	467.47	200.35	605.73	843.92	185.44	538.82	829.56	161.47	570.36	760.33	171.29	631.56	774.37	191.61
220	0.91566	814.07	1747.3	285.76	586.1	1573.1	553.63	544.97	1553.1	94.338	555.86	1099.6	543.53	547.88	1045.3	191.67	334.47	1105.2	425.3	341.51	1100.1	293.44	322.65	1072.5	357.77	517.36	1154.5	149.48	528.23	1208.4	549.93	495.51	964.9	150.26	494.56	987.65	583.24	515.92	576.26	503.28	546.01	581.02	374.13	659.9	571.75	344.79	635.86	604.8	190.97	668.1	66.434	390.64	501.78	82.258	204.26	582	55.804	344.37	425.72	101.33	267.31	387.62	126.4	145.49	554.63	46.406	480.26	447.63	118.04	455.12	449.47	124.75	352.21	371.69	243.61	269.99	338.05	259.01	206.57	244.81	265.24	257.04	342.52	93.956	400.58	231.45	241.42	223.28	348.22	69.386	434.72	243.15	227.48	284.85	349.84	66.204	372.13	411.02	407.63	499.64	480.95	392.1	514.58	477.53	319.22	493.33	420.78	326.19	485.74	461.72	838.45	556.76	530.41	861.54	566.87	539.05	771.06	553.28	474.28	750.74	540.95	627.46	510.82	194.46	581.89	541.55	189.92	541.78	492.49	197.1	590.33	468.29	200.57	613.03	846.03	185.62	546.24	831.28	161.48	578.15	762.24	171.41	639.19	776.63	191.89
221	0.91984	820.27	1748.4	285.43	592.13	1574.7	553.33	550.64	1554	94.045	561.61	1100.6	543.77	554.16	1046.7	191.88	340.46	1106.5	424.99	347.71	1101.2	293.22	328.75	1073.7	357.47	523.7	1155.7	149.52	534.03	1209.9	549.84	502.16	966.27	150.27	499.72	988.73	583.2	517.39	577.15	503.24	547.69	581.68	374.13	668.04	574.5	345.3	644.09	606.57	191.23	668.26	66.339	390.67	522.38	81.061	204.83	582.23	55.834	344.43	445.49	98.468	267.29	407.62	122.3	145.14	554.8	46.429	480.27	448.17	118.85	455.2	450.11	125.58	352.31	388.06	239.41	269.26	354.47	253.85	205.61	260.78	257.95	255.34	343.06	95.38	400.64	248.25	233.71	221.58	348.57	70.734	434.8	259.86	220.22	283.24	350.08	67.673	372.27	411.95	408.79	499.46	481.81	393.08	514.56	478.26	320.21	493.34	421.54	327.31	485.64	465.7	839.93	556.59	534.52	862.42	566.8	542.41	771.83	553.18	477.46	752.11	540.81	637.87	512.49	194.82	591.62	542.08	189.94	552.66	492.1	196.97	601.72	469.08	200.82	620.25	848.06	185.82	553.59	832.93	161.51	585.85	764.09	171.55	646.74	778.79	192.19
222	0.92402	826.48	1749.4	285.11	598.16	1576.2	553.03	556.31	1554.9	93.751	567.33	1101.6	544.02	560.47	1048.1	192.09	346.44	1107.8	424.64	353.91	1102.3	292.95	334.84	1074.9	357.13	530.08	1157	149.56	539.79	1211.3	549.77	508.81	967.59	150.28	504.84	989.79	583.16	518.84	578.05	503.21	549.37	582.37	374.13	676	577.12	345.82	652.14	608.25	191.51	668.42	66.253	390.69	543.12	80.024	205.38	582.45	55.866	344.49	465.42	95.678	267.28	427.79	118.3	144.82	554.98	46.452	480.27	448.71	119.68	455.28	450.77	126.42	352.41	404.56	235.17	268.58	371.05	248.67	204.72	276.97	250.54	253.72	343.61	96.823	400.69	265.28	225.92	219.98	348.95	72.103	434.86	276.8	212.87	281.71	350.34	69.168	372.41	412.87	409.96	499.28	482.64	394.08	514.54	478.97	321.21	493.35	422.3	328.45	485.53	469.66	841.42	556.41	538.61	863.3	566.71	545.75	772.6	553.07	480.62	753.48	540.66	648.14	514.09	195.22	601.21	542.53	189.99	563.45	491.64	196.86	613.01	469.83	201.07	627.39	850	186.03	560.87	834.52	161.54	593.45	765.85	171.71	654.18	780.86	192.51
223	0.9282	832.69	1750.4	284.79	604.18	1577.7	552.72	561.99	1555.7	93.455	573	1102.6	544.28	566.8	1049.5	192.29	352.42	1109	424.23	360.13	1103.4	292.64	340.92	1076.1	356.75	536.49	1158.2	149.58	545.53	1212.7	549.72	515.46	968.85	150.29	509.92	990.83	583.11	520.27	578.97	503.18	551.03	583.06	374.12	683.8	579.61	346.34	660.02	609.82	191.81	668.57	66.177	390.72	563.97	79.161	205.94	582.68	55.899	344.55	485.52	92.983	267.29	448.13	114.41	144.54	555.18	46.475	480.27	449.25	120.53	455.35	451.45	127.27	352.5	421.2	230.9	267.95	387.77	243.48	203.88	293.37	243.03	252.18	344.19	98.283	400.73	282.55	218.05	218.47	349.34	73.491	434.92	293.99	205.43	280.26	350.61	70.683	372.54	413.77	411.14	499.09	483.46	395.09	514.52	479.68	322.24	493.36	423.05	329.6	485.42	473.61	842.89	556.22	542.68	864.16	566.62	549.06	773.37	552.95	483.76	754.85	540.51	658.29	515.64	195.65	610.69	542.89	190.07	574.17	491.11	196.79	624.2	470.54	201.35	634.45	851.84	186.26	568.08	836.04	161.58	600.96	767.54	171.88	661.54	782.83	192.83
224	0.93238	838.91	1751.3	284.48	610.19	1579.1	552.41	567.69	1556.5	93.159	578.65	1103.5	544.53	573.16	1050.7	192.5	358.39	1110.2	423.79	366.35	1104.5	292.3	347	1077.3	356.33	542.94	1159.4	149.6	551.23	1214.1	549.69	522.11	970.05	150.29	514.96	991.87	583.06	521.69	579.9	503.15	552.69	583.77	374.11	691.43	581.96	346.86	667.72	611.28	192.14	668.71	66.108	390.74	584.92	78.486	206.49	582.91	55.931	344.61	505.79	90.398	267.33	468.62	110.66	144.3	555.38	46.498	480.26	449.8	121.4	455.43	452.14	128.14	352.59	437.97	226.63	267.37	404.64	238.3	203.12	309.99	235.45	250.74	344.78	99.755	400.77	300.05	210.14	217.06	349.75	74.894	434.97	311.41	197.93	278.91	350.9	72.21	372.67	414.67	412.34	498.89	484.27	396.12	514.5	480.37	323.27	493.37	423.8	330.76	485.3	477.54	844.36	556.02	546.74	865.02	566.51	552.35	774.13	552.84	486.89	756.23	540.34	668.32	517.13	196.12	620.04	543.17	190.18	584.81	490.51	196.74	635.29	471.21	201.63	641.44	853.58	186.5	575.23	837.49	161.62	608.37	769.15	172.07	668.8	784.7	193.18
225	0.93656	845.12	1752.2	284.18	616.18	1580.5	552.09	573.39	1557.3	92.863	584.28	1104.4	544.78	579.54	1051.9	192.71	364.36	1111.4	423.3	372.58	1105.5	291.91	353.08	1078.4	355.87	549.41	1160.6	149.6	556.92	1215.4	549.67	528.76	971.19	150.28	519.98	992.89	583.01	523.1	580.84	503.12	554.34	584.49	374.1	698.9	584.16	347.38	675.24	612.62	192.49	668.85	66.048	390.76	605.96	78.011	207.05	583.15	55.962	344.67	526.2	87.94	267.38	489.25	107.05	144.1	555.59	46.522	480.26	450.35	122.28	455.49	452.83	129.01	352.67	454.88	222.37	266.85	421.65	233.13	202.42	326.83	227.81	249.4	345.38	101.24	400.79	317.78	202.19	215.75	350.17	76.31	435.01	329.08	190.39	277.65	351.22	73.743	372.79	415.57	413.54	498.69	485.08	397.16	514.47	481.06	324.32	493.37	424.56	331.93	485.16	481.47	845.82	555.8	550.79	865.86	566.39	555.63	774.89	552.72	490.02	757.6	540.16	678.21	518.55	196.61	629.27	543.36	190.32	595.37	489.84	196.73	646.28	471.83	201.94	648.35	855.23	186.76	582.3	838.87	161.68	615.69	770.67	172.28	675.97	786.46	193.53
226	0.94074	851.34	1753.1	283.88	622.17	1581.8	551.76	579.1	1558.1	92.567	589.88	1105.2	545.01	585.95	1053	192.91	370.34	1112.6	422.77	378.83	1106.5	291.49	359.14	1079.5	355.38	555.91	1161.7	149.59	562.59	1216.6	549.66	535.41	972.27	150.27	524.97	993.89	582.94	524.51	581.79	503.09	555.99	585.21	374.08	706.22	586.22	347.9	682.59	613.84	192.85	668.98	65.994	390.78	627.08	77.748	207.6	583.39	55.991	344.72	546.74	85.626	267.46	510.01	103.59	143.95	555.8	46.546	480.25	450.91	123.18	455.55	453.55	129.89	352.75	471.91	218.14	266.38	438.8	228	201.79	343.89	220.13	248.15	346.01	102.72	400.81	335.75	194.23	214.54	350.6	77.737	435.04	346.99	182.82	276.49	351.56	75.276	372.89	416.48	414.75	498.47	485.89	398.21	514.43	481.75	325.37	493.37	425.32	333.11	485.02	485.38	847.26	555.58	554.83	866.68	566.25	558.89	775.65	552.6	493.13	758.96	539.97	687.98	519.91	197.13	638.38	543.46	190.48	605.85	489.1	196.74	657.17	472.41	202.26	655.18	856.76	187.04	589.3	840.16	161.74	622.91	772.1	172.5	683.05	788.11	193.9
